<?xml version='1.0' encoding='utf-8'?>
<svg xmlns="http://www.w3.org/2000/svg" width="1920" height="1080" viewBox="0 0 1920 1080" data-theme="dark">
  <style>
        @font-face {
            font-family: 'Inter';
            src: url('assets/fonts/Inter-Regular.ttf') format('truetype');
            font-weight: 400;
            font-style: normal;
            font-display: swap;
        }
        @font-face {
            font-family: 'Inter';
            src: url('assets/fonts/Inter-Bold.ttf') format('truetype');
            font-weight: 600;
            font-style: normal;
            font-display: swap;
        }
        @font-face {
            font-family: 'Inter';
            src: url('assets/fonts/Inter-Bold.ttf') format('truetype');
            font-weight: 800;
            font-style: normal;
            font-display: swap;
        }
        
:root {
    --background: #0f172a;
    --panel: #1e293b;
    --primary-text: #f1f5f9;
    --muted-text: #94a3b8;
    --inverse-text: #0f172a;
    --border: #334155;
    --shadow-color: #000000;
    --icon-pad-bg: #1e293b;
    --art-glow: #7dd3fc;
    --art-glow-opacity: 0.18;
    --art-sheen: #ffffff;
    --art-sheen-opacity: 0.18;
    --art-shadow: #000000;
    --art-shadow-opacity: 0.28;
    --art-muted-line: #64748b;
    --art-panel-tint: #1e293b;
    --font-family: 'Inter', 'Segoe UI', 'Kalam', Roboto, Helvetica, Arial, sans-serif;
    --radius-xl: 16px;
    --font-family-headline: 'Inter', 'Segoe UI', 'Kalam', Roboto, Helvetica, Arial, sans-serif;
    --font-family-body: 'Inter', 'Segoe UI', 'Kalam', Roboto, Helvetica, Arial, sans-serif;
    --font-heading: 'Inter', 'Segoe UI', 'Kalam', Roboto, Helvetica, Arial, sans-serif;
    --font-body: 'Inter', 'Segoe UI', 'Kalam', Roboto, Helvetica, Arial, sans-serif;
    --font-size-h1: 56px;
    --font-size-h2: 40px;
    --font-size-h3: 28px;
    --font-size-body: 24px;
    --font-size-caption: 18px;
    --secondary-text: var(--muted-text);
    --panel-border: var(--border);
    --font-weight-normal: 400;
    --font-weight-medium: 500;
    --font-weight-semibold: 600;
    --font-weight-bold: 700;
    --spacing-gutter-pct: 0.07;
    --spacing-top-pct: 0.15;
    --spacing-bottom-pct: 0.07;
    --spacing-title-y-pct: 0.055;
    --accent-1: #22d3ee;
    --accent-2: #f472b6;
    --accent-3: #facc15;
    --accent-4: #a3e635;
    --accent-5: #fb923c;
    --accent-6: #c084fc;
}
:root[data-theme="dark"] {
    --background: #0f172a;
    --panel: #1e293b;
    --primary-text: #f1f5f9;
    --muted-text: #94a3b8;
    --inverse-text: #0f172a;
    --border: #334155;
    --shadow-color: #000000;
    --icon-pad-bg: #1e293b;
    --art-glow: #7dd3fc;
    --art-glow-opacity: 0.18;
    --art-sheen: #ffffff;
    --art-sheen-opacity: 0.18;
    --art-shadow: #000000;
    --art-shadow-opacity: 0.28;
    --art-muted-line: #64748b;
    --art-panel-tint: #1e293b;
    --accent-1: #22d3ee;
    --accent-2: #f472b6;
    --accent-3: #facc15;
    --accent-4: #a3e635;
    --accent-5: #fb923c;
    --accent-6: #c084fc;
}
:root[data-theme="light"] {
    --background: #f8fafc;
    --panel: #ffffff;
    --primary-text: #0f172a;
    --muted-text: #64748b;
    --inverse-text: #ffffff;
    --border: #e2e8f0;
    --shadow-color: #000000;
    --icon-pad-bg: #1e293b;
    --art-glow: #0891b2;
    --art-glow-opacity: 0.10;
    --art-sheen: #ffffff;
    --art-sheen-opacity: 0.34;
    --art-shadow: #0f172a;
    --art-shadow-opacity: 0.14;
    --art-muted-line: #94a3b8;
    --art-panel-tint: #f1f5f9;
    --accent-1: #0891b2;
    --accent-2: #db2777;
    --accent-3: #ca8a04;
    --accent-4: #65a30d;
    --accent-5: #ea580c;
    --accent-6: #9333ea;
}</style>
  <rect x="0" y="0" width="1.92E+3" height="1.08E+3" fill="#252a34" stroke="none" id="programmatic_background"/>
  <line id="HEADER_DECOR" x1="960.0" x2="1080.0" y1="90.0" y2="90.0" stroke="var(--accent-1)" stroke-width="6" stroke-linecap="round"/>
  <defs>
    <pattern id="svg2d7eb40b-napkin-hatch" patternUnits="userSpaceOnUse" width="12" height="12">
      <path d="M -3 12 L 12 -3 M 0 15 L 15 0" fill="none" stroke="var(--primary-text)" stroke-width="1" stroke-opacity="0.05"/>
    </pattern>
    <filter id="svg2d7eb40b-shadow" x="-30%" y="-30%" width="160%" height="160%">
      <feDropShadow dx="0" dy="2" stdDeviation="3" flood-color="#000000" flood-opacity="0.08"/>
      <feDropShadow dx="0" dy="6" stdDeviation="10" flood-color="#000000" flood-opacity="0.12"/>
    </filter>
    <radialGradient id="svg2d7eb40b-universal-edge-vignette" cx="50%" cy="50%" r="72%">
      <stop offset="0%" stop-color="var(--background)" stop-opacity="0"/>
      <stop offset="72%" stop-color="var(--background)" stop-opacity="0.12"/>
      <stop offset="100%" stop-color="var(--primary-text)" stop-opacity="0.08"/>
    </radialGradient>
    <linearGradient id="svg2d7eb40b-universal-surface-sheen" x1="0%" y1="0%" x2="100%" y2="100%">
      <stop offset="0%" stop-color="var(--art-sheen)" stop-opacity="var(--art-sheen-opacity)"/>
      <stop offset="46%" stop-color="var(--art-sheen)" stop-opacity="0.035"/>
      <stop offset="100%" stop-color="var(--art-panel-tint)" stop-opacity="0.14"/>
    </linearGradient>
    <radialGradient id="svg2d7eb40b-universal-icon-aura" cx="50%" cy="42%" r="64%">
      <stop offset="0%" stop-color="var(--art-glow)" stop-opacity="var(--art-glow-opacity)"/>
      <stop offset="100%" stop-color="var(--background)" stop-opacity="0"/>
    </radialGradient>
    <radialGradient id="svg2d7eb40b-venn-center-glow" cx="50%" cy="50%" r="60%">
      <stop offset="0%" stop-color="var(--art-glow)" stop-opacity="var(--art-glow-opacity)"/>
      <stop offset="100%" stop-color="var(--background)" stop-opacity="0"/>
    </radialGradient>
    <linearGradient id="svg2d7eb40b-venn-label-sheen" x1="0%" y1="0%" x2="100%" y2="100%">
      <stop offset="0%" stop-color="var(--inverse-text)" stop-opacity="0.14"/>
      <stop offset="100%" stop-color="var(--background)" stop-opacity="0.12"/>
    </linearGradient>
    <filter id="svg2d7eb40b-text-glow" x="-20%" y="-20%" width="140%" height="140%">
      <feDropShadow dx="0" dy="0" stdDeviation="2" flood-color="#000000" flood-opacity="0.4"/>
    </filter>
    <marker id="svg2d7eb40b-arrowhead" markerWidth="10" markerHeight="7" refX="9" refY="3.5" orient="auto" markerUnits="strokeWidth">
      <polygon points="0 0, 10 3.5, 0 7" fill="var(--muted-text)" opacity="0.6"/>
    </marker>
  </defs>
  <rect width="100%" height="100%" fill="var(--background)" id="CANVAS_BG"/>
  <rect width="100%" height="100%" fill="url(#svg2d7eb40b-napkin-hatch)"/>
  <rect id="UNIVERSAL_EDGE_VIGNETTE" width="100%" height="100%" fill="url(#svg2d7eb40b-universal-edge-vignette)" opacity="0.62"/>
  <text id="TITLE" x="960.0" y="59" text-anchor="middle" font-weight="800" font-size="50" fill="#f1f5f9" style="font-size: 60px; font-family: Inter, Segoe UI, Kalam, Roboto, Helvetica, Arial, sans-serif; font-weight: 700; letter-spacing:-1.2px;" data-final-font-size="60">
    <tspan x="960.0" dy="68.00px">Evidence Analysis</tspan>
  </text>
  <rect id="TITLE_FRAME" x="134" y="30" width="1652" height="70" fill="none"/>
  <g id="DIAGRAM_MAIN" transform="translate(960, 580)">
    <circle id="VENN_ART_CENTER_GLOW" cx="0" cy="0" r="255" fill="url(#svg2d7eb40b-venn-center-glow)" opacity="0.95"/>
    <circle cx="0" cy="0" r="255" fill="url(#svg2d7eb40b-venn-center-glow)" opacity="0.95"/>
    <circle cx="0" cy="0" r="255" fill="url(#svg2d7eb40b-venn-center-glow)" opacity="0.95"/>
    <circle cx="0" cy="0" r="255" fill="url(#svg2d7eb40b-venn-center-glow)" opacity="0.95"/>
    <circle cx="0" cy="0" r="255" fill="url(#svg2d7eb40b-venn-center-glow)" opacity="0.95"/>
    <circle cx="0" cy="0" r="255" fill="url(#svg2d7eb40b-venn-center-glow)" opacity="0.95"/>
    <circle cx="0" cy="0" r="255" fill="url(#svg2d7eb40b-venn-center-glow)" opacity="0.95"/>
    <circle cx="0" cy="0" r="255" fill="url(#svg2d7eb40b-venn-center-glow)" opacity="0.95"/>
    <circle cx="0" cy="0" r="255" fill="url(#svg2d7eb40b-venn-center-glow)" opacity="0.95"/>
    <circle cx="0" cy="0" r="255" fill="url(#svg2d7eb40b-venn-center-glow)" opacity="0.95"/>
    <circle cx="0" cy="0" r="255" fill="url(#svg2d7eb40b-venn-center-glow)" opacity="0.95"/>
    <circle cx="0" cy="0" r="255" fill="url(#svg2d7eb40b-venn-center-glow)" opacity="0.95"/>
    <circle cx="0" cy="0" r="255" fill="url(#svg2d7eb40b-venn-center-glow)" opacity="0.95"/>
    <circle cx="0" cy="0" r="255" fill="url(#svg2d7eb40b-venn-center-glow)" opacity="0.95"/>
    <circle cx="0" cy="0" r="255" fill="url(#svg2d7eb40b-venn-center-glow)" opacity="0.95"/>
    <circle cx="0" cy="0" r="255" fill="url(#svg2d7eb40b-venn-center-glow)" opacity="0.95"/>
    <circle cx="0" cy="0" r="255" fill="url(#svg2d7eb40b-venn-center-glow)" opacity="0.95"/>
    <circle cx="0" cy="0" r="255" fill="url(#svg2d7eb40b-venn-center-glow)" opacity="0.95"/>
    <circle cx="0" cy="0" r="255" fill="url(#svg2d7eb40b-venn-center-glow)" opacity="0.95"/>
    <circle cx="0" cy="0" r="255" fill="url(#svg2d7eb40b-venn-center-glow)" opacity="0.95"/>
    <circle cx="0" cy="0" r="255" fill="url(#svg2d7eb40b-venn-center-glow)" opacity="0.95"/>
    <circle cx="0" cy="0" r="255" fill="url(#svg2d7eb40b-venn-center-glow)" opacity="0.95"/>
    <circle cx="0" cy="0" r="255" fill="url(#svg2d7eb40b-venn-center-glow)" opacity="0.95"/>
    <circle cx="0" cy="0" r="255" fill="url(#svg2d7eb40b-venn-center-glow)" opacity="0.95"/>
    <circle cx="0" cy="0" r="255" fill="url(#svg2d7eb40b-venn-center-glow)" opacity="0.95"/>
    <circle cx="0" cy="0" r="255" fill="url(#svg2d7eb40b-venn-center-glow)" opacity="0.95"/>
    <!-- Circle backgrounds (pentagon arrangement) -->
    <!-- r=120, center offset 140 from origin -->
    <circle id="ITEM_1_BG" cx="0" cy="-140" r="180" fill="var(--accent-6)" fill-opacity="0.30" stroke="var(--border)" stroke-width="2"/>
    <circle id="ITEM_2_BG" cx="133" cy="-43" r="180" fill="var(--accent-1)" fill-opacity="0.30" stroke="var(--border)" stroke-width="2"/>
    <circle id="ITEM_3_BG" cx="82" cy="113" r="180" fill="var(--accent-2)" fill-opacity="0.30" stroke="var(--border)" stroke-width="2"/>
    <circle id="ITEM_4_BG" cx="-82" cy="113" r="180" fill="var(--accent-3)" fill-opacity="0.30" stroke="var(--border)" stroke-width="2"/>
    <circle id="ITEM_5_BG" cx="-133" cy="-43" r="180" fill="var(--accent-4)" fill-opacity="0.30" stroke="var(--border)" stroke-width="2"/>
    <!-- ITEM 1 - Top -->
    <circle id="ITEM_1_PAD" cx="0" cy="-270" r="48" fill="var(--icon-pad-bg)" stroke="var(--primary-text)" opacity="0.9" fill-opacity="0.9" stroke-width="2"/>
    <circle id="ITEM_1_PAD_INNER" cx="0" cy="-270" r="37.44" fill="var(--accent-6)" fill-opacity="0.22"/>
    <circle cx="0" cy="-270" r="38" fill="none" stroke="var(--accent-1)" stroke-width="3" stroke-dasharray="6 4"/>
    <g id="ITEM_1_ICON" transform="translate(-27, -297)" data-icon-size="54">
      <g transform="translate(-13.6128813559322,-13.612881355932199) scale(3.384406779661017)" vector-effect="non-scaling-stroke" stroke-width="2.36" stroke-linecap="round" stroke-linejoin="round" stroke-opacity="1.0">
        <path d="M10 10h4" vector-effect="non-scaling-stroke" fill="none" stroke="#f1f5f9"/>
        <path d="M19 7V4a1 1 0 0 0-1-1h-2a1 1 0 0 0-1 1v3" vector-effect="non-scaling-stroke" fill="none" stroke="#f1f5f9"/>
        <path d="M20 21a2 2 0 0 0 2-2v-3.851c0-1.39-2-2.962-2-4.829V8a1 1 0 0 0-1-1h-4a1 1 0 0 0-1 1v11a2 2 0 0 0 2 2z" vector-effect="non-scaling-stroke" fill="none" stroke="#f1f5f9"/>
        <path d="M 22 16 L 2 16" vector-effect="non-scaling-stroke" fill="none" stroke="#f1f5f9"/>
        <path d="M4 21a2 2 0 0 1-2-2v-3.851c0-1.39 2-2.962 2-4.829V8a1 1 0 0 1 1-1h4a1 1 0 0 1 1 1v11a2 2 0 0 1-2 2z" vector-effect="non-scaling-stroke" fill="none" stroke="#f1f5f9"/>
        <path d="M9 7V4a1 1 0 0 0-1-1H6a1 1 0 0 0-1 1v3" vector-effect="non-scaling-stroke" fill="none" stroke="#f1f5f9"/>
      </g>
    </g>
    <rect id="ITEM_1_TEXT_BG" x="-208.0" y="-236.0" width="416.0" height="184.0" rx="16" fill="var(--panel)" fill-opacity="0.94" stroke="var(--primary-text)" stroke-opacity="0.12" stroke-width="1.5"/>
    <rect x="-208.0" y="-236.0" width="416.0" height="184.0" rx="16" fill="url(#svg2d7eb40b-venn-label-sheen)" opacity="0.85"/>
    <text id="ITEM_1_HEAD" x="0.0" y="-220.0" text-anchor="middle" font-weight="bold" font-size="34" fill="var(--accent-6)" data-bg-id="ITEM_1_TEXT_BG" fill-opacity="1.0" stroke="none" style="font-size: 30px; font-family: Inter, Segoe UI, Kalam, Roboto, Helvetica, Arial, sans-serif; font-weight: 700; letter-spacing:-0.4px;" data-final-font-size="30">
      <tspan x="0.0" dy="31.25px">Visual Witness</tspan>
    </text>
    <rect id="ITEM_1_HEAD_FRAME" x="-170" y="-220" width="340" height="46" fill="none"/>
    <text id="ITEM_1_BODY" x="0.0" y="-168.0" text-anchor="middle" font-size="20" fill="var(--primary-text)" data-bg-id="ITEM_1_TEXT_BG" style="font-size: 26px; font-family: Inter, Segoe UI, Kalam, Roboto, Helvetica, Arial, sans-serif; font-weight: 400;" data-final-font-size="26">
      <tspan x="0.0" dy="28.84px">Credible crew saw dark shapes</tspan>
      <tspan x="0.0" dy="29.90px">near sunset</tspan>
    </text>
    <rect id="ITEM_1_BODY_FRAME" x="-190" y="-168" width="380" height="100" fill="none"/>
    <!-- ITEM 2 - Top Right -->
    <circle id="ITEM_2_PAD" cx="256" cy="-83" r="48" fill="var(--icon-pad-bg)" stroke="var(--primary-text)" opacity="0.9" fill-opacity="0.9" stroke-width="2"/>
    <circle id="ITEM_2_PAD_INNER" cx="256" cy="-83" r="37.44" fill="var(--accent-1)" fill-opacity="0.22"/>
    <circle cx="256" cy="-83" r="38" fill="none" stroke="var(--accent-2)" stroke-width="3" stroke-dasharray="6 4"/>
    <g id="ITEM_2_ICON" transform="translate(229, -110)" data-icon-size="54">
      <g transform="translate(-13.6128813559322,-13.6128813559322) scale(3.384406779661017)" vector-effect="non-scaling-stroke" stroke-width="2.36" stroke-linecap="round" stroke-linejoin="round" stroke-opacity="1.0">
        <path d="M19.07 4.93A10 10 0 0 0 6.99 3.34" vector-effect="non-scaling-stroke" fill="none" stroke="#f1f5f9"/>
        <path d="M4 6h.01" vector-effect="non-scaling-stroke" fill="none" stroke="#f1f5f9"/>
        <path d="M2.29 9.62A10 10 0 1 0 21.31 8.35" vector-effect="non-scaling-stroke" fill="none" stroke="#f1f5f9"/>
        <path d="M16.24 7.76A6 6 0 1 0 8.23 16.67" vector-effect="non-scaling-stroke" fill="none" stroke="#f1f5f9"/>
        <path d="M12 18h.01" vector-effect="non-scaling-stroke" fill="none" stroke="#f1f5f9"/>
        <path d="M17.99 11.66A6 6 0 0 1 15.77 16.67" vector-effect="non-scaling-stroke" fill="none" stroke="#f1f5f9"/>
        <circle cx="12" cy="12" r="2" vector-effect="non-scaling-stroke" fill="none" stroke="#f1f5f9"/>
        <path d="m13.41 10.59 5.66-5.66" vector-effect="non-scaling-stroke" fill="none" stroke="#f1f5f9"/>
      </g>
    </g>
    <rect id="ITEM_2_TEXT_BG" x="322.0" y="-156.0" width="416.0" height="204.0" rx="16" fill="var(--panel)" fill-opacity="0.94" stroke="var(--primary-text)" stroke-opacity="0.12" stroke-width="1.5"/>
    <rect x="322.0" y="-156.0" width="416.0" height="204.0" rx="16" fill="url(#svg2d7eb40b-venn-label-sheen)" opacity="0.85"/>
    <text id="ITEM_2_HEAD" x="340.0" y="-140.0" text-anchor="start" font-weight="bold" font-size="34" fill="var(--accent-1)" data-bg-id="ITEM_2_TEXT_BG" fill-opacity="1.0" stroke="none" style="font-size: 30px; font-family: Inter, Segoe UI, Kalam, Roboto, Helvetica, Arial, sans-serif; font-weight: 700; letter-spacing:-0.4px;" data-final-font-size="30">
      <tspan x="340.0" dy="32.25px">Radar Check</tspan>
    </text>
    <rect id="ITEM_2_HEAD_FRAME" x="340" y="-140" width="260" height="48" fill="none"/>
    <text id="ITEM_2_BODY" x="340.0" y="-88.0" text-anchor="start" font-size="20" fill="var(--primary-text)" data-bg-id="ITEM_2_TEXT_BG" style="font-size: 26px; font-family: Inter, Segoe UI, Kalam, Roboto, Helvetica, Arial, sans-serif; font-weight: 400;" data-final-font-size="26">
      <tspan x="340.0" dy="32.84px">No confirmed tracks</tspan>
      <tspan x="340.0" dy="29.90px">for unknown objects</tspan>
    </text>
    <rect id="ITEM_2_BODY_FRAME" x="340" y="-88" width="380" height="120" fill="none"/>
    <!-- ITEM 3 - Bottom Right -->
    <circle id="ITEM_3_PAD" cx="158" cy="220" r="48" fill="var(--icon-pad-bg)" stroke="var(--primary-text)" opacity="0.9" fill-opacity="0.9" stroke-width="2"/>
    <circle id="ITEM_3_PAD_INNER" cx="158" cy="220" r="37.44" fill="var(--accent-2)" fill-opacity="0.22"/>
    <circle cx="158" cy="220" r="38" fill="none" stroke="var(--accent-3)" stroke-width="3" stroke-dasharray="6 4"/>
    <g id="ITEM_3_ICON" transform="translate(131, 193)" data-icon-size="54">
      <g transform="translate(-22.919999999999998,-22.919999999999998) scale(4.16)" vector-effect="non-scaling-stroke" fill="#f1f5f9" fill-opacity="1.0" stroke="none">
        <path fill="#f1f5f9" d="M8.5 3A5.5 5.5 0 0 1 14 8.5c0 1.33-.47 2.55-1.26 3.5H21v9h-9v-8.26c-.95.79-2.17 1.26-3.5 1.26A5.5 5.5 0 0 1 3 8.5A5.5 5.5 0 0 1 8.5 3" vector-effect="non-scaling-stroke" stroke="none"/>
      </g>
    </g>
    <rect id="ITEM_3_TEXT_BG" x="224.0" y="154.0" width="416.0" height="202.0" rx="16" fill="var(--panel)" fill-opacity="0.94" stroke="var(--primary-text)" stroke-opacity="0.12" stroke-width="1.5"/>
    <rect x="224.0" y="154.0" width="416.0" height="202.0" rx="16" fill="url(#svg2d7eb40b-venn-label-sheen)" opacity="0.85"/>
    <text id="ITEM_3_HEAD" x="242.0" y="170.0" text-anchor="start" font-weight="bold" font-size="34" fill="var(--accent-2)" data-bg-id="ITEM_3_TEXT_BG" fill-opacity="1.0" stroke="none" style="font-size: 30px; font-family: Inter, Segoe UI, Kalam, Roboto, Helvetica, Arial, sans-serif; font-weight: 700; letter-spacing:-0.4px;" data-final-font-size="30">
      <tspan x="242.0" dy="32.25px">Sketch Record</tspan>
    </text>
    <rect id="ITEM_3_HEAD_FRAME" x="242" y="170" width="260" height="48" fill="none"/>
    <text id="ITEM_3_BODY" x="242.0" y="220.0" text-anchor="start" font-size="20" fill="var(--primary-text)" data-bg-id="ITEM_3_TEXT_BG" style="font-size: 26px; font-family: Inter, Segoe UI, Kalam, Roboto, Helvetica, Arial, sans-serif; font-weight: 400;" data-final-font-size="26">
      <tspan x="242.0" dy="32.84px">Captain drew changing forms</tspan>
      <tspan x="242.0" dy="29.90px">in logbook</tspan>
    </text>
    <rect id="ITEM_3_BODY_FRAME" x="242" y="220" width="380" height="120" fill="none"/>
    <!-- ITEM 4 - Bottom Left -->
    <circle id="ITEM_4_PAD" cx="-158" cy="220" r="48" fill="var(--icon-pad-bg)" stroke="var(--primary-text)" opacity="0.9" fill-opacity="0.9" stroke-width="2"/>
    <circle id="ITEM_4_PAD_INNER" cx="-158" cy="220" r="37.44" fill="var(--accent-3)" fill-opacity="0.22"/>
    <circle cx="-158" cy="220" r="38" fill="none" stroke="var(--accent-4)" stroke-width="3" stroke-dasharray="6 4"/>
    <g id="ITEM_4_ICON" transform="translate(-185, 193)" data-icon-size="54">
      <g transform="translate(-15.788571428571426,-15.788571428571426) scale(2.674285714285714)">
        <path d="M20.5542 2H5.66992C6.49988 6 7.56575 7.98678 9.99992 9C17.8062 6.76963 21.5459 8.67577 20.5542 2Z" fill="#636363"/>
        <path d="M12.1785 8.45119C11.1715 5.76698 9.30017 3.50613 6.91 2H5.67C3.64 2 2 3.64 2 5.67V26C2 28.2091 3.79086 30 6 30H26C28.2091 30 30 28.2091 30 26V5.67C30 3.65 28.36 2 26.33 2H20.5542L20.5546 2.00289C18.1403 3.30728 16.2069 5.38587 15.082 7.90405C14.2111 8.04947 13.2425 8.21697 12.1785 8.45119Z" fill="#9B9B9B"/>
        <path d="M17.5 29C23.8513 29 29 23.8513 29 17.5C29 11.1487 23.8513 6 17.5 6C11.1487 6 6 11.1487 6 17.5C6 23.8513 11.1487 29 17.5 29Z" fill="#BEBEBE"/>
        <path d="M26.33 29C27.8077 29 29 27.8077 29 26.33V17.0618C25.0524 17.5536 22 20.9187 22 25L26.33 29Z" fill="#D3D3D3"/>
        <path d="M15.39 24C15.78 22.9 16 21.73 16 20.5C16 14.7 11.3 10 5.5 10C4.6359 10 3.80141 10.1086 3 10.3084V26.33C3 27.8077 4.19228 29 5.67 29L15.39 24Z" fill="#D3D3D3"/>
        <path d="M5.05127 28.9283C5.24983 28.9752 5.45706 29 5.67022 29H26.3302C26.5434 29 26.7507 28.9752 26.9493 28.9283C26.4128 23.3541 21.7185 19 16.0002 19C10.2914 19 5.58868 23.3541 5.05127 28.9283Z" fill="#E6E6E6"/>
      </g>
    </g>
    <rect id="ITEM_4_TEXT_BG" x="-640.0" y="154.0" width="416.0" height="202.0" rx="16" fill="var(--panel)" fill-opacity="0.94" stroke="var(--primary-text)" stroke-opacity="0.12" stroke-width="1.5"/>
    <rect x="-640.0" y="154.0" width="416.0" height="202.0" rx="16" fill="url(#svg2d7eb40b-venn-label-sheen)" opacity="0.85"/>
    <text id="ITEM_4_HEAD" x="-242.0" y="170.0" text-anchor="end" font-weight="bold" font-size="34" fill="var(--accent-3)" data-bg-id="ITEM_4_TEXT_BG" fill-opacity="1.0" stroke="none" style="font-size: 30px; font-family: Inter, Segoe UI, Kalam, Roboto, Helvetica, Arial, sans-serif; font-weight: 700; letter-spacing:-0.4px;" data-final-font-size="30">
      <tspan x="-242.0" dy="32.25px">Mirage Theory</tspan>
    </text>
    <rect id="ITEM_4_HEAD_FRAME" x="-502" y="170" width="260" height="48" fill="none"/>
    <text id="ITEM_4_BODY" x="-242.0" y="220.0" text-anchor="end" font-size="20" fill="var(--primary-text)" data-bg-id="ITEM_4_TEXT_BG" style="font-size: 26px; font-family: Inter, Segoe UI, Kalam, Roboto, Helvetica, Arial, sans-serif; font-weight: 400;" data-final-font-size="26">
      <tspan x="-242.0" dy="32.84px">Atmospheric layers distorted</tspan>
      <tspan x="-242.0" dy="29.90px">distant clouds</tspan>
    </text>
    <rect id="ITEM_4_BODY_FRAME" x="-622" y="220" width="380" height="120" fill="none"/>
    <!-- ITEM 5 - Top Left -->
    <circle id="ITEM_5_PAD" cx="-256" cy="-83" r="48" fill="var(--icon-pad-bg)" stroke="var(--primary-text)" opacity="0.9" fill-opacity="0.9" stroke-width="2"/>
    <circle id="ITEM_5_PAD_INNER" cx="-256" cy="-83" r="37.44" fill="var(--accent-4)" fill-opacity="0.22"/>
    <circle cx="-256" cy="-83" r="38" fill="none" stroke="var(--accent-5)" stroke-width="3" stroke-dasharray="6 4"/>
    <g id="ITEM_5_ICON" transform="translate(-283, -110)" data-icon-size="54">
      <g transform="translate(-17.12571428571428,-15.788571428571426) scale(2.674285714285714)">
        <path d="M6.38815 7.21997L3.31815 8.82997C2.95815 9.01997 2.88815 9.50997 3.18815 9.79997L5.79815 12.27L6.38815 7.21997Z" fill="#F9C23C"/>
        <path d="M18.5582 28.5H16.7782L17.9782 22.5H16.4782L15.2782 28.5H11.7781L12.9781 22.5H11.4781L10.2781 28.5H8.47812C7.74812 28.5 7.14812 29.02 7.00812 29.71C6.96812 29.86 7.09812 30 7.24812 30H19.7782C19.9382 30 20.0582 29.86 20.0282 29.71C19.8882 29.02 19.2782 28.5 18.5582 28.5Z" fill="#F9C23C"/>
        <path d="M17.5681 6.22C17.4381 5.8 17.2681 5.4 17.0481 5.03H17.6681C18.9581 5.03 19.9981 3.99 19.9981 2.7C19.9981 2.32 19.6781 2 19.2981 2H11.8381C8.65813 2 6.05813 4.48 5.84813 7.61L4.55813 18.79C4.17813 22.1 6.75813 25 10.0881 25H23.8381L23.8348 24.99H29.1181C29.5181 24.99 29.8381 24.67 29.8381 24.27V15.12C29.8381 14.6 29.2881 14.25 28.8081 14.47L21.4662 17.8893L19.1682 11H19.164L17.5681 6.22Z" fill="#CA0B4A"/>
        <path d="M10 10C10.5523 10 11 9.55228 11 9C11 8.44772 10.5523 8 10 8C9.44772 8 9 8.44772 9 9C9 9.55228 9.44772 10 10 10Z" fill="#212121"/>
      </g>
    </g>
    <rect id="ITEM_5_TEXT_BG" x="-738.0" y="-156.0" width="416.0" height="204.0" rx="16" fill="var(--panel)" fill-opacity="0.94" stroke="var(--primary-text)" stroke-opacity="0.12" stroke-width="1.5"/>
    <rect x="-738.0" y="-156.0" width="416.0" height="204.0" rx="16" fill="url(#svg2d7eb40b-venn-label-sheen)" opacity="0.85"/>
    <text id="ITEM_5_HEAD" x="-340.0" y="-140.0" text-anchor="end" font-weight="bold" font-size="34" fill="var(--accent-4)" data-bg-id="ITEM_5_TEXT_BG" fill-opacity="1.0" stroke="none" style="font-size: 30px; font-family: Inter, Segoe UI, Kalam, Roboto, Helvetica, Arial, sans-serif; font-weight: 700; letter-spacing:-0.4px;" data-final-font-size="30">
      <tspan x="-340.0" dy="32.25px">Bird Rejection</tspan>
    </text>
    <rect id="ITEM_5_HEAD_FRAME" x="-600" y="-140" width="260" height="48" fill="none"/>
    <text id="ITEM_5_BODY" x="-340.0" y="-88.0" text-anchor="end" font-size="20" fill="var(--primary-text)" data-bg-id="ITEM_5_TEXT_BG" style="font-size: 26px; font-family: Inter, Segoe UI, Kalam, Roboto, Helvetica, Arial, sans-serif; font-weight: 400;" data-final-font-size="26">
      <tspan x="-340.0" dy="32.84px">Flocks could not maintain</tspan>
      <tspan x="-340.0" dy="29.90px">station at speed</tspan>
    </text>
    <rect id="ITEM_5_BODY_FRAME" x="-720" y="-88" width="380" height="120" fill="none"/>
  </g>
</svg>
