<?xml version='1.0' encoding='utf-8'?>
<svg xmlns="http://www.w3.org/2000/svg" width="1920" height="1080" viewBox="0 0 1920 1080" data-theme="dark">
  <style>
        @font-face {
            font-family: 'Inter';
            src: url('assets/fonts/Inter-Regular.ttf') format('truetype');
            font-weight: 400;
            font-style: normal;
            font-display: swap;
        }
        @font-face {
            font-family: 'Inter';
            src: url('assets/fonts/Inter-Bold.ttf') format('truetype');
            font-weight: 600;
            font-style: normal;
            font-display: swap;
        }
        @font-face {
            font-family: 'Inter';
            src: url('assets/fonts/Inter-Bold.ttf') format('truetype');
            font-weight: 800;
            font-style: normal;
            font-display: swap;
        }
        
:root {
    --background: #0f172a;
    --panel: #1e293b;
    --primary-text: #f1f5f9;
    --muted-text: #94a3b8;
    --inverse-text: #0f172a;
    --border: #334155;
    --shadow-color: #000000;
    --icon-pad-bg: #1e293b;
    --art-glow: #7dd3fc;
    --art-glow-opacity: 0.18;
    --art-sheen: #ffffff;
    --art-sheen-opacity: 0.18;
    --art-shadow: #000000;
    --art-shadow-opacity: 0.28;
    --art-muted-line: #64748b;
    --art-panel-tint: #1e293b;
    --font-family: 'Inter', 'Segoe UI', 'Kalam', Roboto, Helvetica, Arial, sans-serif;
    --radius-xl: 16px;
    --font-family-headline: 'Inter', 'Segoe UI', 'Kalam', Roboto, Helvetica, Arial, sans-serif;
    --font-family-body: 'Inter', 'Segoe UI', 'Kalam', Roboto, Helvetica, Arial, sans-serif;
    --font-heading: 'Inter', 'Segoe UI', 'Kalam', Roboto, Helvetica, Arial, sans-serif;
    --font-body: 'Inter', 'Segoe UI', 'Kalam', Roboto, Helvetica, Arial, sans-serif;
    --font-size-h1: 56px;
    --font-size-h2: 40px;
    --font-size-h3: 28px;
    --font-size-body: 24px;
    --font-size-caption: 18px;
    --secondary-text: var(--muted-text);
    --panel-border: var(--border);
    --font-weight-normal: 400;
    --font-weight-medium: 500;
    --font-weight-semibold: 600;
    --font-weight-bold: 700;
    --spacing-gutter-pct: 0.07;
    --spacing-top-pct: 0.15;
    --spacing-bottom-pct: 0.07;
    --spacing-title-y-pct: 0.055;
    --accent-1: #22d3ee;
    --accent-2: #f472b6;
    --accent-3: #facc15;
    --accent-4: #a3e635;
    --accent-5: #fb923c;
    --accent-6: #c084fc;
}
:root[data-theme="dark"] {
    --background: #0f172a;
    --panel: #1e293b;
    --primary-text: #f1f5f9;
    --muted-text: #94a3b8;
    --inverse-text: #0f172a;
    --border: #334155;
    --shadow-color: #000000;
    --icon-pad-bg: #1e293b;
    --art-glow: #7dd3fc;
    --art-glow-opacity: 0.18;
    --art-sheen: #ffffff;
    --art-sheen-opacity: 0.18;
    --art-shadow: #000000;
    --art-shadow-opacity: 0.28;
    --art-muted-line: #64748b;
    --art-panel-tint: #1e293b;
    --accent-1: #22d3ee;
    --accent-2: #f472b6;
    --accent-3: #facc15;
    --accent-4: #a3e635;
    --accent-5: #fb923c;
    --accent-6: #c084fc;
}
:root[data-theme="light"] {
    --background: #f8fafc;
    --panel: #ffffff;
    --primary-text: #0f172a;
    --muted-text: #64748b;
    --inverse-text: #ffffff;
    --border: #e2e8f0;
    --shadow-color: #000000;
    --icon-pad-bg: #1e293b;
    --art-glow: #0891b2;
    --art-glow-opacity: 0.10;
    --art-sheen: #ffffff;
    --art-sheen-opacity: 0.34;
    --art-shadow: #0f172a;
    --art-shadow-opacity: 0.14;
    --art-muted-line: #94a3b8;
    --art-panel-tint: #f1f5f9;
    --accent-1: #0891b2;
    --accent-2: #db2777;
    --accent-3: #ca8a04;
    --accent-4: #65a30d;
    --accent-5: #ea580c;
    --accent-6: #9333ea;
}</style>
  <rect x="0" y="0" width="1.92E+3" height="1.08E+3" fill="#252a34" stroke="none" id="programmatic_background"/>
  <line id="HEADER_DECOR" x1="960.0" x2="1080.0" y1="135.0" y2="135.0" stroke="var(--accent-1)" stroke-width="6" stroke-linecap="round"/>
  <defs>
    <pattern id="svg9da7a777-napkin-hatch" patternUnits="userSpaceOnUse" width="12" height="12">
      <path d="M -3 12 L 12 -3 M 0 15 L 15 0" fill="none" stroke="var(--primary-text)" stroke-width="1" stroke-opacity="0.05"/>
    </pattern>
    <radialGradient id="svg9da7a777-universal-edge-vignette" cx="50%" cy="50%" r="72%">
      <stop offset="0%" stop-color="var(--background)" stop-opacity="0"/>
      <stop offset="72%" stop-color="var(--background)" stop-opacity="0.12"/>
      <stop offset="100%" stop-color="var(--primary-text)" stop-opacity="0.08"/>
    </radialGradient>
    <linearGradient id="svg9da7a777-universal-surface-sheen" x1="0%" y1="0%" x2="100%" y2="100%">
      <stop offset="0%" stop-color="var(--art-sheen)" stop-opacity="var(--art-sheen-opacity)"/>
      <stop offset="46%" stop-color="var(--art-sheen)" stop-opacity="0.035"/>
      <stop offset="100%" stop-color="var(--art-panel-tint)" stop-opacity="0.14"/>
    </linearGradient>
    <radialGradient id="svg9da7a777-universal-icon-aura" cx="50%" cy="42%" r="64%">
      <stop offset="0%" stop-color="var(--art-glow)" stop-opacity="var(--art-glow-opacity)"/>
      <stop offset="100%" stop-color="var(--background)" stop-opacity="0"/>
    </radialGradient>
    <filter id="svg9da7a777-text-glow" x="-20%" y="-20%" width="140%" height="140%">
      <feDropShadow dx="0" dy="0" stdDeviation="2" flood-color="#000000" flood-opacity="0.4"/>
    </filter>
    <filter id="svg9da7a777-shadow" x="-30%" y="-30%" width="160%" height="160%">
      <feDropShadow dx="0" dy="2" stdDeviation="3" flood-color="#000000" flood-opacity="0.08"/>
      <feDropShadow dx="0" dy="6" stdDeviation="10" flood-color="#000000" flood-opacity="0.12"/>
    </filter>
    <marker id="svg9da7a777-arrowhead" markerWidth="10" markerHeight="7" refX="9" refY="3.5" orient="auto" markerUnits="strokeWidth">
      <polygon points="0 0, 10 3.5, 0 7" fill="var(--muted-text)" opacity="0.6"/>
    </marker>
  </defs>
  <rect width="100%" height="100%" fill="var(--background)" id="CANVAS_BG"/>
  <rect width="100%" height="100%" fill="url(#svg9da7a777-napkin-hatch)"/>
  <rect id="UNIVERSAL_EDGE_VIGNETTE" width="100%" height="100%" fill="url(#svg9da7a777-universal-edge-vignette)" opacity="0.62"/>
  <text id="TITLE" x="960.0" y="59" text-anchor="middle" font-weight="700" font-size="63" fill="#f1f5f9" style="font-size: 60px; font-family: Inter, Segoe UI, Kalam, Roboto, Helvetica, Arial, sans-serif; font-weight: 700; letter-spacing:-1.2px;" data-final-font-size="60">
    <tspan x="960.0" dy="68.00px">Trindade Sighting Sequence</tspan>
  </text>
  <rect id="TITLE_FRAME" x="134" y="59" width="1652" height="103" fill="none"/>
  <g id="DIAGRAM_SCALER" transform="translate(50.3, 33.8) scale(0.95)">
    <g transform="translate(495.0, 390.0)">
      <rect id="ITEM_1_BG" x="-375" y="-120" width="750" height="240" rx="22" fill="var(--accent-5)" stroke="var(--accent-1)" stroke-width="2" fill-opacity="0.4"/>
      <circle cx="-240" cy="0" r="50" fill="var(--accent-1)" opacity="0.15"/>
      <g transform="translate(-90.0, 0.0)">
        <text id="ITEM_1_HEAD" text-anchor="start" font-weight="bold" font-size="36" fill="var(--primary-text)" x="-6.0" y="-84.0" data-bg-id="ITEM_1_BG" fill-opacity="1.0" stroke="none" style="font-size: 30px; font-family: Inter, Segoe UI, Kalam, Roboto, Helvetica, Arial, sans-serif; font-weight: 700; letter-spacing:-0.4px;" data-final-font-size="30">
          <tspan x="-6.0" dy="33.25px">Stern Alarm</tspan>
        </text>
        <rect id="ITEM_1_HEAD_FRAME" x="-6" y="-84" width="390" height="50" fill="none"/>
        <text id="ITEM_1_BODY" text-anchor="start" font-size="24" fill="var(--primary-text)" x="-8.0" y="-28.0" data-bg-id="ITEM_1_BG" style="font-size: 26px; font-family: Inter, Segoe UI, Kalam, Roboto, Helvetica, Arial, sans-serif; font-weight: 400;" data-final-font-size="26">
          <tspan x="-8.0" dy="36.84px">Reserve officer Viegas spots dark</tspan>
          <tspan x="-8.0" dy="29.90px">object approaching island</tspan>
        </text>
        <rect id="ITEM_1_BODY_FRAME" x="-8" y="-28" width="460" height="140" fill="none"/>
      </g>
      <circle id="ITEM_1_PAD" cx="-245" cy="0.0" r="48" fill="var(--icon-pad-bg)" stroke="var(--primary-text)" opacity="0.9" fill-opacity="0.9" stroke-width="2"/>
      <circle id="ITEM_1_PAD_INNER" cx="-245" cy="0.0" r="37.44" fill="var(--accent-5)" fill-opacity="0.22"/>
      <circle cx="-245" cy="0.0" r="38" fill="none" stroke="var(--accent-1)" stroke-width="3" stroke-dasharray="6 4"/>
      <g id="ITEM_1_ICON" transform="translate(-283, -38)" data-icon-size="76" stroke-dasharray="6 4">
        <g transform="translate(-12.66666666666667,-12.666666666666668) scale(4.222222222222222)" vector-effect="non-scaling-stroke" stroke-width="2.62" stroke-linecap="round" stroke-linejoin="round" stroke-opacity="1.0">
          <path d="M12 13m-7 0a7 7 0 1 0 14 0a7 7 0 1 0 -14 0" vector-effect="non-scaling-stroke" fill="none" stroke="#f1f5f9"/>
          <path d="M12 10l0 3l2 0" vector-effect="non-scaling-stroke" fill="none" stroke="#f1f5f9"/>
          <path d="M7 4l-2.75 2" vector-effect="non-scaling-stroke" fill="none" stroke="#f1f5f9"/>
          <path d="M17 4l2.75 2" vector-effect="non-scaling-stroke" fill="none" stroke="#f1f5f9"/>
        </g>
      </g>
    </g>
    <g transform="translate(1425.0, 390.0)">
      <rect id="ITEM_2_BG" x="-375" y="-120" width="750" height="240" rx="22" fill="var(--accent-6)" stroke="var(--accent-2)" stroke-width="2" fill-opacity="0.4"/>
      <circle cx="-240" cy="0" r="50" fill="var(--accent-1)" opacity="0.15"/>
      <g transform="translate(-90.0, 0.0)">
        <text id="ITEM_2_HEAD" text-anchor="start" font-weight="bold" font-size="36" fill="var(--primary-text)" x="-6.0" y="-84.0" data-bg-id="ITEM_2_BG" fill-opacity="1.0" stroke="none" style="font-size: 30px; font-family: Inter, Segoe UI, Kalam, Roboto, Helvetica, Arial, sans-serif; font-weight: 700; letter-spacing:-0.4px;" data-final-font-size="30">
          <tspan x="-6.0" dy="33.25px">Rush to Deck</tspan>
        </text>
        <rect id="ITEM_2_HEAD_FRAME" x="-6" y="-84" width="390" height="50" fill="none"/>
        <text id="ITEM_2_BODY" text-anchor="start" font-size="24" fill="var(--primary-text)" x="-8.0" y="-28.0" data-bg-id="ITEM_2_BG" style="font-size: 26px; font-family: Inter, Segoe UI, Kalam, Roboto, Helvetica, Arial, sans-serif; font-weight: 400;" data-final-font-size="26">
          <tspan x="-8.0" dy="36.84px">Dentist Ribeiro runs across deck</tspan>
          <tspan x="-8.0" dy="29.90px">pointing at sky</tspan>
        </text>
        <rect id="ITEM_2_BODY_FRAME" x="-8" y="-28" width="460" height="140" fill="none"/>
      </g>
      <circle id="ITEM_2_PAD" cx="-245" cy="0.0" r="48" fill="var(--icon-pad-bg)" stroke="var(--primary-text)" opacity="0.9" fill-opacity="0.9" stroke-width="2"/>
      <circle id="ITEM_2_PAD_INNER" cx="-245" cy="0.0" r="37.44" fill="var(--accent-6)" fill-opacity="0.22"/>
      <circle cx="-245" cy="0.0" r="38" fill="none" stroke="var(--accent-2)" stroke-width="3" stroke-dasharray="6 4"/>
      <g id="ITEM_2_ICON" transform="translate(-283, -38)" data-icon-size="76" stroke-dasharray="6 4">
        <g transform="translate(-7.53448275862069,-3.275862068965517) scale(0.6551724137931034)">
          <path fill="#FFCA28" d="M67.4 36.19s1.12 4.32-3.68 5.44c-4.2.99-5.08-3.25-5.08-3.25s-.93-4.28-2.85-4.7c-.73-.16-.89.02-2.98-.29c-3.57-.54-4.51-2.27-4.81-3.84c-.1-.48-.14-.95-.17-1.36c-.05-.57-.1-1.03-.3-1.29c-.16-.21-2.38-1.06-2.08-2.13c.4-1.42 3.02-2.55 2.91-3.87c.01-.34-.21-1.45-.24-1.6c-.21-1.26-.14-3.02.26-4.76c1.1-4.8 4.23-8.43 9.6-8.94c4.81-.44 10.31 3.14 12.56 7.41c1.44 2.74-.65 9.81-3.11 13.55c-3.2 4.88-.03 9.63-.03 9.63"/>
          <path fill="#795548" d="M50.48 29.02c-.76.49-1.62.63-2.48.53c-.1-.48-.14-.95-.17-1.36c.68.14 1.54.1 2.05-.07c.94-.32 1.44.38.6.9"/>
          <ellipse cx="52.17" cy="21.9" fill="#404040" rx="1.76" ry="1.14" transform="rotate(-87.799 52.17 21.9)"/>
          <path fill="#6D4C41" d="M51.54 19.45c-1.1.36-1.39-.36-1.03-.97c.26-.44.92-.83 2.23-.62c1.23.2 1.76.89 2.1 1.31s.32.85.04.89c-.39.08-1.98-1.05-3.34-.61"/>
          <path fill="#616161" d="m98.86 82.64l-18.57 3.71l-5.17-17.87l-12.43 8.33l9.06 18.2l.04-.03a6 6 0 0 0 3.49 2.8c.45.14.9.22 1.36.25v.02l.15-.01c.56.03 1.11-.01 1.64-.12l22.92-8.71z"/>
          <path fill="#325599" d="M102.84 78.83c-.32-.54-1.01-.71-1.55-.39l-2.37 1.42c-1.61.96-2.48 3.69-2.48 3.69l3.52 5.91l4.93 4.28c1.27.99 3.02 1.1 4.41.29l1.07-.63c.47-.28.63-.89.35-1.36z"/>
          <path fill="#7C7C7C" d="M44.86 113.8L56.27 92s14.21-11.76 15.45-12.59c4.63-3.1 5.55-7.41 5.09-10.54c-.36-2.43-1.97-5.66-1.97-5.66l-18.65 5.56l.88 3.42s-5.71 7.38-7.04 8.92s-3.61 3.69-5.38 9.76c-1.87 6.4-6.56 21.83-6.56 21.83z"/>
          <path fill="#4568AD" d="M44.85 120.59c.62.1 1.2-.32 1.3-.93l.44-2.73c.31-1.85-1.22-4.27-1.22-4.27l-6.79-1.12l-6.45 1.01c-1.58.34-2.79 1.6-3.06 3.19l-.21 1.23c-.09.54.27 1.05.81 1.14z"/>
          <path fill="url(#SVGSgEw8dzU)" d="M50.06 49.02L41.1 42.2l-4.36 4.66l9.04 8.76l.01-.01c1.77 1.85 5.92 3.11 9.37-.03c3.28-2.99 7.33-9.36 7.33-9.36l-7.01-5.62z"/>
          <path fill="#04A287" d="M50.27 44.94c2.57 7.19 8.87 7.41 8.87 7.41l5.02-8.6a4.86 4.86 0 0 0-1.74-6.64l-.83-.49c-2.31-1.35-4.27-.69-7.38 3.85c-2.79 4.09-3.94 4.47-3.94 4.47"/>
          <path fill="url(#SVGfOpvW2Av)" d="M56.19 68.76c-2.48-9.84-2.94-16.75-2.38-22.29c.72-6.98 4.05-11.15 7.79-12.47c4.62-1.63 7.82.72 9.11 4.9c.88 2.85.71 5.04.64 6.4c0 0-.64 7.47 5.3 16.82c0 0-.57 4.06-10.05 6.29c-4.22.99-10.41.35-10.41.35"/>
          <path fill="#EDA600" d="M71.46 59.61s-4.34-2.16-4.39-2.18a1.12 1.12 0 0 0-1.52.46l-.93 1.74c-.15.29-.16.61-.06.9c-.5.29-1.73 1.05-1.99 1.56c-.3.58.04 1.19.36 1.33c.37.16.54.68.43 1.07c-.12.4-.11.81.08 1.14s.43.46.89.55c.22.04.45.32.45.54c-.01.34-.01.93.16 1.15c.34.45.9.31 1.19.64c.11.13.12.7.35.91c.68.64 2.89-.54 2.89-.54l4.22-3.91z"/>
          <path fill="url(#SVG7IFEYboi)" d="m70.06 58.93l2.67.75l1.83 5.05s-5.71 5.62-6.68 4.05c-.31-.49.26-1.02-.57-1.33c-.59-.22-1.03-.5-.86-1.41c.07-.34-.2-.76-.44-.79c-1.08-.13-1.36-.73-1.04-1.49c.18-.42.14-1.13-.47-1.45c-.22-.12-.53-.61-.39-1.31c.23-1.09 5.95-2.07 5.95-2.07"/>
          <path fill="url(#SVGk02pgd6r)" d="m73.73 65.36l9.89-6.67v-.01c1.19-1.18 1.61-2 1.85-2.99c.76-3.1-1.26-5.26-1.26-5.26L75.06 40.2l-5.64 5.83l8.04 8.04l-6.01 5.55z"/>
          <path fill="#04A287" d="M73.93 52.01s6.06-5.99 5.9-10.6c0 0-2.89-.01-7.19-3.26c-2.71-2.04-6.31-2.21-7.76.17c-1.29 2.1-1.08 4.69 1.4 7.66c1.86 2.21 7.65 6.03 7.65 6.03"/>
          <path fill="url(#SVGX3urjcQu)" d="m36.29 43.39l-.03.02c-.43.54-1.17.69-1.65.32l-1.95-1.47c-.48-.36-.52-1.1-.09-1.64s1.17-.69 1.65-.32l1.95 1.47c.49.37.56 1.08.12 1.62"/>
          <path fill="url(#SVGUp3RCPPI)" d="M37.93 37.24c.03.02.04.04.04.04c.89.95 1.68 1.74 2.02 1.95c.9.57 1.74 1.29 2.26 2.3c.97 1.89-.27 3.75-1.72 5.12c-1.44 1.38-2.35 1.68-3.92 1.42c-1.28-.21-3.99-3.08-3.99-3.08c-.28-.33-.6-.67-.92-.99c-.12-.12-.25-.24-.37-.37l-.01-.01c-.37-.36-.42-.84-.01-1.34c.54-.66 1.07-.32 1.13-.27l.01.01c.25.23.52.54.72.69c.58.43.9.51.9.51l2.74-3.48l-.93-1.24s-.01-.02-.04-.05c-.1-.16-.49-.73.25-1.4c.82-.7 1.67.03 1.84.19"/>
          <path fill="url(#SVGU6vOmcwr)" d="M37.84 41.96c-.48.51-1.23.59-1.68.19l-2.07-1.85c-.45-.4-.43-1.14.05-1.65s1.23-.59 1.68-.19l2.07 1.85c.44.41.42 1.14-.05 1.65"/>
          <path fill="url(#SVGbJBEGcjS)" d="M35.15 42.26c.45-.65 1-1.45 1.61-2.14c.09-.1.17-.19.26-.28c.84-.87 1.94-1.02 3.32-.27c.05.03.09.05.14.08c.08.05.16.1.25.15l.01.01c.12.08.24.16.36.25c.41.3.72.67.91 1.03c.76 1.21.54 2.36.54 2.36s-.88 2.68-2.18 2.21s-1.97-2.32-1.97-2.32l.34-1.34c-.39-.04-.73.13-1.19.65c-.15.17-.32.38-.52.63c-.02.03-.27.34-.29.36c-.3.33-.64.49-1.05.46c-.53-.03-.98-.54-1.23-.74c.19-.24.44-.75.69-1.1"/>
          <path fill="url(#SVGtXFVcZFf)" d="m34.56 45.35l1.62-1.33l.86-.98l1.12-.98l.39.17l-.24 1.28l.84 1.26l.53.45l-2.75 1.95z"/>
          <path fill="#EDA600" d="M34.67 44.62c-.03.62-.63.96-.59.97c.17.07 1.01-.14 1.94-1.18c.72-.81 1.41-1.86 2.25-2.11c-.29 1.42.34 2.51 1.5 2.94c-.89-.83-1.61-2.23-.8-3.35c-.66-.4-1.43.26-1.82.74c-.45.54-.85 1.38-1.68 1.27c-.57-.07-.78-.43-.58-.97c.5-1.32 1.67-2.67 2.87-3.42c.44-.27 1.34-.34 2.5-.11c-.85-.66-2.3-.45-2.85-.19c-.47.22-.35.13-.77-.14c-.21-.14-.42-.28-.62-.41c.17.28.47.62.52.95c.06.41-.33.76-.57 1.05c-.62.74-1.16.1-1.8-.3c.43.51.53.67.75 1.03c.29.49-.15.89-.47 1.27c-.65.78-1.99-.81-2.08-.71c-.1.12 2.33 1.99 2.3 2.67"/>
          <path fill="#543930" d="M70.27 10.07c-2.3-2.82-6.5-4.66-10.51-4.83c-2.69-.11-5.28.39-7.49 1.47c-.04.02-4.25 2.11-5.18 4.16c-1 2.19-.07 3.45.16 3.68c.36.35 1.16.24 1.16.24c1.58-.14 6.6-.51 9.16-.02c.4.08.85.2 1.04.56c.08.16.16 1.18.17 1.36c.2 2.3.03 3.76.75 5.2c.12.23.59.53.59.53l.92-1.47c.58-.84 1.11-1.57 1.88-1.43c2.28.41 2.02 4.45-.62 5.45c0 0 .52 3.16 3.43 3.67c2.55.45 2.88-.12 3.11-1.08c.49-2.08 1.05-2.99 1.65-3.95c.71-1.14 1.44-2.31 1.93-5.35c.48-3.05-.26-5.88-2.15-8.19"/>
          <path fill="url(#SVGIZhD4dPL)" d="M70.27 10.07c-2.3-2.82-6.5-4.66-10.51-4.83c-2.69-.11-5.28.39-7.49 1.47c-.04.02-4.25 2.11-5.18 4.16c-1 2.19-.07 3.45.16 3.68c.36.35 1.16.24 1.16.24c1.58-.14 6.6-.51 9.16-.02c.4.08.85.2 1.04.56c.08.16.16 1.18.17 1.36c.2 2.3.03 3.76.75 5.2c.12.23.59.53.59.53l.92-1.47c.58-.84 1.11-1.57 1.88-1.43c2.28.41 2.02 4.45-.62 5.45c0 0 .52 3.16 3.43 3.67c2.55.45 2.88-.12 3.11-1.08c.49-2.08 1.05-2.99 1.65-3.95c.71-1.14 1.44-2.31 1.93-5.35c.48-3.05-.26-5.88-2.15-8.19"/>
        </g>
      </g>
    </g>
    <g transform="translate(495.0, 750.0)">
      <rect id="ITEM_3_BG" x="-375" y="-120" width="750" height="240" rx="22" fill="var(--accent-1)" stroke="var(--accent-3)" stroke-width="2" fill-opacity="0.4"/>
      <circle cx="-240" cy="0" r="50" fill="var(--accent-1)" opacity="0.15"/>
      <g transform="translate(-90.0, 0.0)">
        <text id="ITEM_3_HEAD" text-anchor="start" font-weight="bold" font-size="36" fill="var(--primary-text)" x="-6.0" y="-84.0" data-bg-id="ITEM_3_BG" fill-opacity="1.0" stroke="none" style="font-size: 30px; font-family: Inter, Segoe UI, Kalam, Roboto, Helvetica, Arial, sans-serif; font-weight: 700; letter-spacing:-0.4px;" data-final-font-size="30">
          <tspan x="-6.0" dy="33.25px">Rolleiflex Shots</tspan>
        </text>
        <rect id="ITEM_3_HEAD_FRAME" x="-6" y="-84" width="390" height="50" fill="none"/>
        <text id="ITEM_3_BODY" text-anchor="start" font-size="24" fill="var(--primary-text)" x="-8.0" y="-28.0" data-bg-id="ITEM_3_BG" style="font-size: 26px; font-family: Inter, Segoe UI, Kalam, Roboto, Helvetica, Arial, sans-serif; font-weight: 400;" data-final-font-size="26">
          <tspan x="-8.0" dy="36.84px">Photographer Baraúna snaps six</tspan>
          <tspan x="-8.0" dy="29.90px">frames of fast object</tspan>
        </text>
        <rect id="ITEM_3_BODY_FRAME" x="-8" y="-28" width="460" height="140" fill="none"/>
      </g>
      <circle id="ITEM_3_PAD" cx="-245" cy="0.0" r="48" fill="var(--icon-pad-bg)" stroke="var(--primary-text)" opacity="0.9" fill-opacity="0.9" stroke-width="2"/>
      <circle id="ITEM_3_PAD_INNER" cx="-245" cy="0.0" r="37.44" fill="var(--accent-1)" fill-opacity="0.22"/>
      <circle cx="-245" cy="0.0" r="38" fill="none" stroke="var(--accent-3)" stroke-width="3" stroke-dasharray="6 4"/>
      <g id="ITEM_3_ICON" transform="translate(-283, -38)" data-icon-size="76" stroke-dasharray="6 4">
        <g transform="translate(-5.428571428571429,-17.642857142857146) scale(2.7142857142857144)">
          <path d="M5.5 11C5.22386 11 5 11.2239 5 11.5V13H9V11.5C9 11.2239 8.77614 11 8.5 11H5.5Z" fill="#D3D3D3"/>
          <path d="M21.5 11C21.2239 11 21 11.2239 21 11.5V13H27V11.5C27 11.2239 26.7761 11 26.5 11H21.5Z" fill="#D3D3D3"/>
          <path d="M2 14C2 12.8954 2.89543 12 4 12H28C29.1046 12 30 12.8954 30 14V16.5L28 22L30 27.5V28C30 29.1046 29.1046 30 28 30H4C2.89543 30 2 29.1046 2 28V27.5L3.5 22L2 16.5V14Z" fill="#E6E6E6"/>
          <path d="M2 16.5C2 16.2239 2.22386 16 2.5 16H29.5C29.7761 16 30 16.2239 30 16.5V27.5C30 27.7761 29.7761 28 29.5 28H2.5C2.22386 28 2 27.7761 2 27.5V16.5Z" fill="#533566"/>
          <path d="M22 22C22 25.3137 19.3137 28 16 28C12.6863 28 10 25.3137 10 22C10 18.6863 12.6863 16 16 16C19.3137 16 22 18.6863 22 22Z" fill="#321B41"/>
          <path d="M16 27C18.7614 27 21 24.7614 21 22C21 19.2386 18.7614 17 16 17C13.2386 17 11 19.2386 11 22C11 24.7614 13.2386 27 16 27ZM16 29C12.134 29 9 25.866 9 22C9 18.134 12.134 15 16 15C19.866 15 23 18.134 23 22C23 25.866 19.866 29 16 29Z" fill="#9B9B9B"/>
          <path d="M18.5 22C18.5 23.3807 17.3807 24.5 16 24.5C14.6193 24.5 13.5 23.3807 13.5 22C13.5 20.6193 14.6193 19.5 16 19.5C17.3807 19.5 18.5 20.6193 18.5 22Z" fill="#433B6B"/>
          <path d="M19.0825 19.875C19.4967 20.5924 19.4448 21.3979 18.9665 21.674C18.4882 21.9501 17.7647 21.5924 17.3505 20.875C16.9363 20.1575 16.9882 19.3521 17.4665 19.0759C17.9448 18.7998 18.6683 19.1575 19.0825 19.875Z" fill="white"/>
        </g>
      </g>
    </g>
    <g transform="translate(1425.0, 750.0)">
      <rect id="ITEM_4_BG" x="-375" y="-120" width="750" height="240" rx="22" fill="var(--accent-2)" stroke="var(--accent-4)" stroke-width="2" fill-opacity="0.4"/>
      <circle cx="-240" cy="0" r="50" fill="var(--accent-1)" opacity="0.15"/>
      <g transform="translate(-90.0, 0.0)">
        <text id="ITEM_4_HEAD" text-anchor="start" font-weight="bold" font-size="36" fill="var(--primary-text)" x="-6.0" y="-84.0" data-bg-id="ITEM_4_BG" fill-opacity="1.0" stroke="none" style="font-size: 30px; font-family: Inter, Segoe UI, Kalam, Roboto, Helvetica, Arial, sans-serif; font-weight: 700; letter-spacing:-0.4px;" data-final-font-size="30">
          <tspan x="-6.0" dy="33.25px">Shipboard Lab</tspan>
        </text>
        <rect id="ITEM_4_HEAD_FRAME" x="-6" y="-84" width="390" height="50" fill="none"/>
        <text id="ITEM_4_BODY" text-anchor="start" font-size="24" fill="var(--primary-text)" x="-8.0" y="-28.0" data-bg-id="ITEM_4_BG" style="font-size: 26px; font-family: Inter, Segoe UI, Kalam, Roboto, Helvetica, Arial, sans-serif; font-weight: 400;" data-final-font-size="26">
          <tspan x="-8.0" dy="36.84px">Film developed in infirmary</tspan>
          <tspan x="-8.0" dy="29.90px">with officers watching</tspan>
        </text>
        <rect id="ITEM_4_BODY_FRAME" x="-8" y="-28" width="460" height="140" fill="none"/>
      </g>
      <circle id="ITEM_4_PAD" cx="-245" cy="0.0" r="48" fill="var(--icon-pad-bg)" stroke="var(--primary-text)" opacity="0.9" fill-opacity="0.9" stroke-width="2"/>
      <circle id="ITEM_4_PAD_INNER" cx="-245" cy="0.0" r="37.44" fill="var(--accent-2)" fill-opacity="0.22"/>
      <circle cx="-245" cy="0.0" r="38" fill="none" stroke="var(--accent-4)" stroke-width="3" stroke-dasharray="6 4"/>
      <g id="ITEM_4_ICON" transform="translate(-283, -38)" data-icon-size="76" stroke-dasharray="6 4">
        <g transform="translate(-3.3628318584070795,-7.061946902654864) scale(3.5870206489675516)" vector-effect="non-scaling-stroke" stroke-width="2.62" stroke-linecap="round" stroke-linejoin="round" stroke-opacity="1.0">
          <path d="M2 12m0 3a3 3 0 0 1 3 -3h12a3 3 0 0 1 3 3v0a3 3 0 0 1 -3 3h-12a3 3 0 0 1 -3 -3z" vector-effect="non-scaling-stroke" fill="none" stroke="#f1f5f9"/>
          <path d="M6 12l1 -5h5l3 5" vector-effect="non-scaling-stroke" fill="none" stroke="#f1f5f9"/>
          <path d="M21 9l-7.8 0" vector-effect="non-scaling-stroke" fill="none" stroke="#f1f5f9"/>
        </g>
      </g>
    </g>
  </g>
</svg>
